<svg xmlns="http://www.w3.org/2000/svg" viewBox="0 0 100 100">
  <rect x="30" y="55" width="40" height="35" rx="4" fill="#1e3a5f"/>
  <rect x="30" y="60" width="40" height="5" fill="#2d5a8e" opacity="0.5"/>
  <rect x="30" y="70" width="40" height="5" fill="#2d5a8e" opacity="0.5"/>
  <rect x="30" y="80" width="40" height="5" fill="#2d5a8e" opacity="0.5"/>
  <circle cx="50" cy="40" r="18" fill="#f4c28b"/>
  <circle cx="43" cy="38" r="2.5" fill="#2c1810"/>
  <circle cx="57" cy="38" r="2.5" fill="#2c1810"/>
  <circle cx="44" cy="37" r="0.8" fill="white"/>
  <circle cx="58" cy="37" r="0.8" fill="white"/>
  <path d="M43 46 Q50 51 57 46" stroke="#2c1810" stroke-width="1.5" fill="none" stroke-linecap="round"/>
  <path d="M35 52 Q50 60 65 52 Q60 57 50 59 Q40 57 35 52z" fill="#4a3728"/>
  <rect x="15" y="58" width="16" height="8" rx="4" fill="#1e3a5f"/>
  <rect x="69" y="58" width="16" height="8" rx="4" fill="#1e3a5f"/>
  <rect x="44" y="85" width="12" height="5" rx="1" fill="#f59e0b"/>
  <rect x="33" y="88" width="14" height="10" rx="2" fill="#1a1a2e"/>
  <rect x="53" y="88" width="14" height="10" rx="2" fill="#1a1a2e"/>
  <rect x="31" y="95" width="16" height="5" rx="2" fill="#3d2b1f"/>
  <rect x="51" y="95" width="16" height="5" rx="2" fill="#3d2b1f"/>
  <!-- Tricorne hat -->
  <ellipse cx="50" cy="23" rx="22" ry="4" fill="#1a1a2e"/>
  <path d="M28 23 Q30 10 50 8 Q70 10 72 23 Z" fill="#1a1a2e"/>
  <!-- Hat brim highlight -->
  <ellipse cx="50" cy="23" rx="22" ry="4" fill="none" stroke="#374151" stroke-width="1"/>
  <!-- Gold skull on hat -->
  <circle cx="50" cy="16" r="4" fill="#f59e0b"/>
  <circle cx="48.5" cy="15" r="0.8" fill="#1a1a2e"/>
  <circle cx="51.5" cy="15" r="0.8" fill="#1a1a2e"/>
  <path d="M48 18 L49 17 L51 17 L52 18" stroke="#1a1a2e" stroke-width="0.5" fill="none"/>
</svg>
