<svg xmlns="http://www.w3.org/2000/svg" viewBox="0 0 100 100">
  <rect x="30" y="55" width="40" height="35" rx="4" fill="#1e3a5f"/>
  <rect x="30" y="60" width="40" height="5" fill="#2d5a8e" opacity="0.5"/>
  <rect x="30" y="70" width="40" height="5" fill="#2d5a8e" opacity="0.5"/>
  <rect x="30" y="80" width="40" height="5" fill="#2d5a8e" opacity="0.5"/>
  <circle cx="50" cy="40" r="18" fill="#f4c28b"/>
  <circle cx="43" cy="38" r="2.5" fill="#2c1810"/>
  <circle cx="57" cy="38" r="2.5" fill="#2c1810"/>
  <circle cx="44" cy="37" r="0.8" fill="white"/>
  <circle cx="58" cy="37" r="0.8" fill="white"/>
  <path d="M43 46 Q50 51 57 46" stroke="#2c1810" stroke-width="1.5" fill="none" stroke-linecap="round"/>
  <path d="M35 52 Q50 60 65 52 Q60 57 50 59 Q40 57 35 52z" fill="#4a3728"/>
  <rect x="15" y="58" width="16" height="8" rx="4" fill="#1e3a5f"/>
  <rect x="69" y="58" width="16" height="8" rx="4" fill="#1e3a5f"/>
  <rect x="44" y="85" width="12" height="5" rx="1" fill="#f59e0b"/>
  <rect x="33" y="88" width="14" height="10" rx="2" fill="#1a1a2e"/>
  <rect x="53" y="88" width="14" height="10" rx="2" fill="#1a1a2e"/>
  <rect x="31" y="95" width="16" height="5" rx="2" fill="#3d2b1f"/>
  <rect x="51" y="95" width="16" height="5" rx="2" fill="#3d2b1f"/>
  <!-- Tall Captain hat -->
  <rect x="34" y="8" width="32" height="20" rx="2" fill="#111827"/>
  <rect x="28" y="26" width="44" height="5" rx="2" fill="#111827"/>
  <!-- Gold hat band -->
  <rect x="34" y="23" width="32" height="3" fill="#f59e0b"/>
  <!-- Skull and crossbones -->
  <circle cx="50" cy="16" r="5" fill="#e5e7eb"/>
  <circle cx="47.5" cy="14.5" r="1.2" fill="#111827"/>
  <circle cx="52.5" cy="14.5" r="1.2" fill="#111827"/>
  <path d="M47 18 L48.5 16.5 L50 18 L51.5 16.5 L53 18" stroke="#111827" stroke-width="0.8" fill="none"/>
  <line x1="44" y1="20" x2="56" y2="12" stroke="#e5e7eb" stroke-width="1.5" stroke-linecap="round"/>
  <line x1="44" y1="12" x2="56" y2="20" stroke="#e5e7eb" stroke-width="1.5" stroke-linecap="round"/>
</svg>
