<svg xmlns="http://www.w3.org/2000/svg" viewBox="0 0 100 100">
  <rect x="30" y="55" width="40" height="35" rx="4" fill="#1e3a5f"/>
  <rect x="30" y="60" width="40" height="5" fill="#2d5a8e" opacity="0.5"/>
  <rect x="30" y="70" width="40" height="5" fill="#2d5a8e" opacity="0.5"/>
  <rect x="30" y="80" width="40" height="5" fill="#2d5a8e" opacity="0.5"/>
  <circle cx="50" cy="38" r="18" fill="#f4c28b"/>
  <circle cx="43" cy="36" r="2.5" fill="#2c1810"/>
  <circle cx="57" cy="36" r="2.5" fill="#2c1810"/>
  <circle cx="44" cy="35" r="0.8" fill="white"/>
  <circle cx="58" cy="35" r="0.8" fill="white"/>
  <path d="M43 44 Q50 49 57 44" stroke="#2c1810" stroke-width="1.5" fill="none" stroke-linecap="round"/>
  <path d="M35 50 Q50 58 65 50 Q60 55 50 57 Q40 55 35 50z" fill="#4a3728"/>
  <path d="M57 30 L60 42" stroke="#c0896e" stroke-width="1.5" stroke-linecap="round"/>
  <rect x="15" y="58" width="16" height="8" rx="4" fill="#1e3a5f"/>
  <rect x="69" y="58" width="16" height="8" rx="4" fill="#1e3a5f"/>
  <rect x="44" y="85" width="12" height="5" rx="1" fill="#f59e0b"/>
  <rect x="33" y="88" width="14" height="10" rx="2" fill="#1a1a2e"/>
  <rect x="53" y="88" width="14" height="10" rx="2" fill="#1a1a2e"/>
  <rect x="31" y="95" width="16" height="5" rx="2" fill="#3d2b1f"/>
  <rect x="51" y="95" width="16" height="5" rx="2" fill="#3d2b1f"/>
  <!-- Navigator goggles -->
  <circle cx="43" cy="36" r="6" fill="none" stroke="#92400e" stroke-width="2"/>
  <circle cx="57" cy="36" r="6" fill="none" stroke="#92400e" stroke-width="2"/>
  <circle cx="43" cy="36" r="5" fill="rgba(251,191,36,0.2)"/>
  <circle cx="57" cy="36" r="5" fill="rgba(251,191,36,0.2)"/>
  <line x1="49" y1="36" x2="51" y2="36" stroke="#92400e" stroke-width="2"/>
  <line x1="32" y1="35" x2="37" y2="36" stroke="#92400e" stroke-width="1.5"/>
  <line x1="63" y1="36" x2="68" y2="35" stroke="#92400e" stroke-width="1.5"/>
  <!-- Strap over head -->
  <path d="M35 30 Q50 24 65 30" stroke="#92400e" stroke-width="2" fill="none"/>
</svg>
