<svg xmlns="http://www.w3.org/2000/svg" viewBox="0 0 100 100">
  <!-- Long captain coat -->
  <path d="M25 55 L30 55 L30 98 L45 98 L50 90 L55 98 L70 98 L70 55 L75 55 L75 100 L25 100 Z" fill="#7f1d1d"/>
  <!-- Coat lapels -->
  <path d="M30 55 L40 65 L50 58 L60 65 L70 55" fill="#991b1b"/>
  <!-- Coat buttons -->
  <circle cx="50" cy="65" r="1.5" fill="#fbbf24"/>
  <circle cx="50" cy="72" r="1.5" fill="#fbbf24"/>
  <circle cx="50" cy="79" r="1.5" fill="#fbbf24"/>
  <!-- Arms -->
  <rect x="12" y="55" width="18" height="9" rx="4" fill="#7f1d1d"/>
  <rect x="70" y="55" width="18" height="9" rx="4" fill="#7f1d1d"/>
  <!-- Cuffs -->
  <rect x="12" y="60" width="18" height="4" rx="2" fill="#fbbf24"/>
  <rect x="70" y="60" width="18" height="4" rx="2" fill="#fbbf24"/>
  <!-- Head -->
  <circle cx="50" cy="38" r="18" fill="#f4c28b"/>
  <circle cx="43" cy="36" r="2.5" fill="#2c1810"/>
  <circle cx="57" cy="36" r="2.5" fill="#2c1810"/>
  <circle cx="44" cy="35" r="0.8" fill="white"/>
  <circle cx="58" cy="35" r="0.8" fill="white"/>
  <path d="M43 44 Q50 49 57 44" stroke="#2c1810" stroke-width="1.5" fill="none" stroke-linecap="round"/>
  <path d="M35 50 Q50 58 65 50 Q60 55 50 57 Q40 55 35 50z" fill="#4a3728"/>
  <!-- Tricorne hat -->
  <ellipse cx="50" cy="23" rx="22" ry="4" fill="#111827"/>
  <path d="M28 23 Q30 10 50 8 Q70 10 72 23 Z" fill="#111827"/>
  <ellipse cx="50" cy="23" rx="22" ry="4" fill="none" stroke="#374151" stroke-width="1"/>
  <rect x="42" y="12" width="16" height="3" rx="1" fill="#fbbf24"/>
</svg>
